<?xml version="1.0" encoding="utf-8"?>
<!-- Generator: Adobe Illustrator 18.0.0, SVG Export Plug-In . SVG Version: 6.00 Build 0)  -->
<!DOCTYPE svg PUBLIC "-//W3C//DTD SVG 1.1//EN" "http://www.w3.org/Graphics/SVG/1.1/DTD/svg11.dtd">
<svg version="1.1" id="Layer_1" xmlns="http://www.w3.org/2000/svg" xmlns:xlink="http://www.w3.org/1999/xlink" x="0px" y="0px"
	 viewBox="0 0 451.6 263" enable-background="new 0 0 451.6 263" xml:space="preserve">
<g>
	<g>
		<polyline fill="none" stroke="#F1F1F1" stroke-width="2" stroke-miterlimit="10" points="423.2,193.8 423.2,194.8 422.2,194.8 		
			"/>
		
			<line fill="none" stroke="#F1F1F1" stroke-width="2" stroke-miterlimit="10" stroke-dasharray="1.9946,1.9946" x1="420.2" y1="194.8" x2="14.2" y2="194.8"/>
		<polyline fill="none" stroke="#F1F1F1" stroke-width="2" stroke-miterlimit="10" points="13.3,194.8 12.3,194.8 12.3,193.8 		"/>
		
			<line fill="none" stroke="#F1F1F1" stroke-width="2" stroke-miterlimit="10" stroke-dasharray="2.0173,2.0173" x1="12.3" y1="191.7" x2="12.3" y2="15.2"/>
		<polyline fill="none" stroke="#F1F1F1" stroke-width="2" stroke-miterlimit="10" points="12.3,14.2 12.3,13.2 13.3,13.2 		"/>
		
			<line fill="none" stroke="#F1F1F1" stroke-width="2" stroke-miterlimit="10" stroke-dasharray="1.9946,1.9946" x1="15.2" y1="13.2" x2="421.2" y2="13.2"/>
		<polyline fill="none" stroke="#F1F1F1" stroke-width="2" stroke-miterlimit="10" points="422.2,13.2 423.2,13.2 423.2,14.2 		"/>
		<polyline fill="none" stroke="#F1F1F1" stroke-width="2" stroke-miterlimit="10" stroke-dasharray="1.9568,1.9568" points="
			423.2,16.2 423.2,33.6 439.2,52.3 		"/>
		<polyline fill="none" stroke="#F1F1F1" stroke-width="2" stroke-miterlimit="10" points="439.8,53.1 440.5,53.8 439.8,54.6 		"/>
		<polyline fill="none" stroke="#F1F1F1" stroke-width="2" stroke-miterlimit="10" stroke-dasharray="1.9902,1.9902" points="
			438.5,56.1 423.2,74.1 423.2,192.8 		"/>
	</g>
</g>
<rect x="37.7" y="36" fill="none" width="361.9" height="140.8"/>
<text transform="matrix(1 0 0 1 37.6855 46.0415)"><tspan x="0" y="0" fill="#494949" font-family="'Helvetica-BoldOblique'" font-size="14">DIARY STUDIES</tspan><tspan x="0" y="20" fill="#494949" font-family="'Helvetica'" font-size="14">We created a diary study for patients to log their daily </tspan><tspan x="0" y="40" fill="#494949" font-family="'Helvetica'" font-size="14">cancer related activities for a span of 2 weeks.</tspan><tspan x="0" y="67.8" fill="#494949" font-family="'Helvetica-BoldOblique'" font-size="14">PARTICIPATORY DESIGN ACTIVITIES</tspan><tspan x="0" y="87.8" fill="#494949" font-family="'Helvetica'" font-size="14">We conducted group activities with cancer patients and </tspan><tspan x="0" y="107.8" fill="#494949" font-family="'Helvetica'" font-size="14">caregivers to gain a better understanding of their key </tspan><tspan x="0" y="127.8" fill="#494949" font-family="'Helvetica'" font-size="14">needs, desires and challenges.</tspan></text>
<rect x="11.3" y="196.1" fill="#ADD9A0" width="206" height="58.7"/>
<rect x="217.1" y="196.1" fill="#65B6BF" width="206" height="58.7"/>
<rect x="31.9" y="211.6" fill="none" width="58.1" height="39.2"/>
<text transform="matrix(1 0 0 1 66.4992 241.2613)" fill="#FFFFFF" font-family="'Montserrat-Regular'" font-size="40">2</text>
<rect x="103" y="213.3" fill="none" width="90.4" height="31.2"/>
<text transform="matrix(1 0 0 1 103.0074 223.6777)"><tspan x="0" y="0" fill="#FFFFFF" font-family="'Montserrat-Regular'" font-size="14">DIARY</tspan><tspan x="0" y="16.8" fill="#FFFFFF" font-family="'Montserrat-Regular'" font-size="14">STUDIES</tspan></text>
<rect x="225.4" y="211.6" fill="none" width="62.8" height="39.2"/>
<text transform="matrix(1 0 0 1 264.6238 241.2613)" fill="#FFFFFF" font-family="'Montserrat-Regular'" font-size="40">2</text>
<rect x="302.4" y="212.9" fill="none" width="107.5" height="31.5"/>
<text transform="matrix(1 0 0 1 302.4494 223.3186)"><tspan x="0" y="0" fill="#FFFFFF" font-family="'Montserrat-Regular'" font-size="14">SUPPORT</tspan><tspan x="0" y="16.8" fill="#FFFFFF" font-family="'Montserrat-Regular'" font-size="14">GROUPS</tspan></text>
</svg>
