<svg xmlns="http://www.w3.org/2000/svg" xmlns:xlink="http://www.w3.org/1999/xlink" version="1.1">


<path id="logo-jar" d="M145.4 65.9c0.6-2.5 1.4-7.6 0-11.7c0.7-0.9 1.5-2.1 2.3-3.8c2.5-5.2 3.8-12.4 3.8-21.4 c0-2.2-0.7-4.3-2.1-6.2c-0.7-3-4.7-6.1-20.8-8.6c-11.9-1.8-27.7-2.8-44.4-2.8c-16.8 0-32.5 1-44.4 2.8c-18.4 2.8-20.9 6.6-20.9 9.9 s2.5 7.1 20.9 9.9c11.9 1.8 27.7 2.8 44.4 2.8c16.8 0 32.5-1 44.4-2.8c8.3-1.3 13.4-2.7 16.5-4.3c-0.2 16.3-4.8 20.7-5.4 21.2 c-0.8 0.4-1.4 1.1-1.6 2.1c-0.2 1 0.1 1.9 0.7 2.7c1.4 1.8 0.9 6.9 0 9.8c-0.2 0.8-0.1 1.7 0.3 2.5c14.9 26.6 12.9 36.6 12.9 36.6 c-0.1 0.2-0.1 0.4-0.1 0.6c-0.1 0.8-5.2 76.9-7.4 88c-1.8 9-8.5 10.1-8.8 10.1c-0.4 0.1-0.8 0.2-1.1 0.4c-7.5 2.1-92.6 2.1-100.1 0 c-0.4-0.2-0.7-0.3-1.1-0.4c-0.1 0-6.9-1-8.8-10.1c-2.2-11.2-7.4-87.3-7.4-88c0-0.2 0-0.3-0.1-0.6c0-0.1-2-10.2 12.9-36.7 c0.5-0.9 0.5-1.9 0.1-2.8c-0.8-1.8-1.4-4.6-1-6.1c9.8 1.8 52.9 9 95.1 0.6c0.6 0.4 1.3 1 1.6 1.8c0.4 1.4-0.5 3.2-1.4 4.4 c-0.6 0.9-0.7 2-0.3 3c2.9 7.2 10.3 27.8 10.3 36.3c0 8.4-1.5 38.7-2.6 56c-1.2 18-9.2 27.1-24.4 27.8c-5.2 0.2-12.6-0.8-18.4-7 c-8.4-9.1-11.2-27.3-8-52.4l-6.3-0.8c-3.5 27.5-0.3 46.9 9.6 57.6c7.4 8 16.8 9.4 23.3 9c12.9-0.6 28.7-7 30.5-33.7 c1-15.8 2.7-47.3 2.7-56.5c0-10.1-7.9-31.3-10.2-37.2c1.7-3 2.1-5.9 1.3-8.5c-1.4-4.3-5.6-6-6-6.2c-0.6-0.2-1.2-0.3-1.8-0.1 c-46 9.5-95.1-0.6-95.6-0.7c-0.9-0.2-1.8 0-2.5 0.5c-4.8 3.4-3.2 10.1-2.2 13.2C9.5 92.2 10.5 103.4 11 105.9 c0.4 5.6 5.2 77.3 7.5 88.6c2.5 12.4 11.9 14.8 13.9 15.1c3 0.9 13 2.1 52.3 2.1c39.3 0 49.3-1.1 52.3-2.1 c1.9-0.4 11.4-2.7 13.9-15.1c2.3-11.3 7.1-83 7.5-88.6C158.9 103.4 159.9 92.1 145.4 65.9z M84.3 30.4c-31.1 0-52.5-3.5-58-6.3 c5.5-2.8 26.9-6.3 58-6.3c31.1 0 52.5 3.5 58 6.3C136.8 26.9 115.3 30.4 84.3 30.4z"/>
<path id="logo-yarrow" d="M77 128.6c0 0 8 16.6 18.9 0.6c7.7-11.4-10.3-13.3-10.3-13.3s16.4-10.1 6.5-18.6 c-15.1-13.1-18.3 8.8-18.3 8.8s4.6-24.3-13.3-17.2c-20 8 1.5 20.7 1.5 20.7S41.3 98.1 41.5 116c0.2 15.6 17.4 7.7 17.4 7.7 s-18.5 15.3 1.6 21.2C78.6 150.1 77 128.6 77 128.6z"/>


<path id="jar-icon-inner-shade" d="M133 113v27.8c0 0 0 0 0 0c0 0 0 0 0 0v0.4v-0.4c0 5-17.9 9-39.5 9c-21.4 0-38.5-3.9-39.5-8.8v0.3V141 c0 0 0-0.1 0-0.1c0 0 0 0.1 0 0.1v-28H9.5c7.6 40 42.9 70.5 85.2 70.5s77.6-30.5 85.2-70.5H133z"/>
<path id="jar-icon-drop-shadow" d="M169.6 143.1c0 3.9-15.5 7-37.3 8.2c-3 0.2-6.1 0.3-9.2 0.4c-3.7 0.1-7.5 0.1-11.3 0.1 c-4.1 0-8.1-0.1-12-0.3c-26.2-1 1.3-0.1 22.5-4.3c6.8-1.4 9.6-4.8 10-7.1c0.6-3.4-1.2-5.8 0.3-5.7 C154.2 135.9 169.6 139.3 169.6 143.1z"/>
<path id="jar-icon-jar" d="M93.6 44.3c19.7 0 35.7 3.7 35.7 8.2 s-16 8.2-35.7 8.2s-35.7-3.7-35.7-8.2S73.9 44.3 93.6 44.3z M57.9 60.7c0 4.5 16 8.2 35.7 8.2c19.7 0 35.7-3.7 35.7-8.2 M54.3 140.8 c0 5 17.5 9 39.2 9c21.6 0 39.2-4 39.2-9 M57.9 60.7v-8.3 M129.2 52.4v8.3 M59.8 63.3c0 0 4.5 4.7-1.8 7.1c-3.4 1.3-3.6 3.8-3.6 3.8 v67 M132.7 141.2v-67c0 0-0.2-2.6-3.6-3.8c-6.3-2.4-1.8-7.1-1.8-7.1"/>
<path id="jar-icon-seed" d="M95 117.6c-0.2-0.1-0.8-0.2-1.3-0.2c-0.4 0-0.7 0.1-0.8 0.3c-0.6 1.2 1.7 9.1 0.2 9.3c0 0-0.1 0-0.1 0 c-1.3 0-2.7-8.1-4.2-8.1c-1.1 0-2.3 3.5-2.3 6.1c0 9.4 4.7 11.4 6.4 11.4s6.4-2 6.4-11.4C99.2 121.5 97.3 118.4 95 117.6z"/>
<path id="jar-icon-sprout" d="M90.2 117.6c-0.4-4.8-0.1-7.7 0.9-8.9c0.4-0.4 0.9-0.7 1.5-0.7c0.7 0 1.3 0.2 1.8 0.7 c0.4 0.4 0.7 1.2 0.3 2.1c-0.2 0.5-0.6 0.9-1.1 1c-0.4 0.1-0.9 0.1-1.3-0.2c-0.3-0.2-0.4-0.6-0.2-0.8c0.2-0.3 0.6-0.4 0.8-0.2 c0.1 0.1 0.2 0.1 0.3 0.1c0.1 0 0.3-0.2 0.3-0.3c0.2-0.4 0-0.7-0.1-0.8c-0.3-0.3-0.6-0.4-0.9-0.4c-0.3 0-0.5 0.1-0.6 0.3 c-0.8 1-1 3.7-0.6 8c0.1 1.7 0.6 3.8 1.1 5.7c0.2 1.2 0.3 2.5 0.2 3c-0.4-0.5-1-2.3-1.4-3.4c-0.1-0.4-0.3-0.8-0.4-1.2 C90.6 120.2 90.4 118.8 90.2 117.6z"/>
<path id="jar-icon-earth" d="M58.3 129.8l0 10.4c0 0 12.8 6.2 36.5 5.6s33.5-4.9 33.5-4.9l0-10.4c0 0-24.9-2.4-34.5-2.4 S58.3 129.8 58.3 129.8z"/>
<circle id="jar-icon-outer-circle" cx="94.7" cy="96.3" r="86.8"/>

<g id="jar-icon-tree">
	<path d="M97.3,130.2c-1.6-5.9-2.7-12-3.3-18.1c-0.4-4.2-0.4-8.6,1.1-12.5c0.9-2.4,3.2-4.4,4.7-6.5c1.6-2.4,2.6-4.7,5.6-5.7c1.7-0.5,1.4-1.7-0.3-1.1c-4.1,1.3-5.7,3.4-8,6.9c-3.1,4.8-5.7,7.2-6.2,13.1c-0.6,8.2,1.2,16.9,3.4,24.7C94.6,131.8,97.5,131,97.3,130.2L97.3,130.2z"/>
	<path d="M94,99.4c2.2-7.3-8.9-10.2-11.2-9S93.4,101.1,94,99.4z"/>
	<path d="M93.2,112.6c-0.5-8.7,12.9-1.2,12.9-1.2S93.4,116.5,93.2,112.6z"/>
</g>

<g id="jar-icon-blossom">
	<path fill="#93B15F" d="M95.9,131.3c-1.8-4.7-3.2-9.8-3.7-14.8c-0.4-4,1-5.9,2.6-9.3c1.7-3.6-0.2-8.9,2.2-12.1
				c0.7-0.9-2.2-0.5-2.7,0.1c-2,2.6-1.3,6.7-1.7,9.8c-0.5,3.8-3.2,6.4-3.4,10.3c-0.3,5.6,1.7,11.7,3.7,16.9
				C93.4,133,96.2,132.1,95.9,131.3L95.9,131.3z"/>
	<path fill="#ED9A9B" d="M95.8,93.3c-4.4-4.2-4.1-9.1-4.1-10.4c0-1.4,0.5-6.2,1.1-7.5c0.6-1.4,2.7,1.1,3,1.8
		C96.1,77.9,95.8,93.3,95.8,93.3z"/>
	<path fill="#E96663" d="M97.4,75.8c-4.9,3.5-3.9,8.9-3.9,11.2s1.5,5.8,2.3,6.2s5.8-3.9,6.6-8.5C103.2,80.1,100.1,73.9,97.4,75.8z"/>
	<path fill="#BFBD7C" d="M95.4,95.4c-1.5,0.2,3.6-6.4,3.8-9.3c0.2-2.9,1-2.2,1-2.2s2.9,2.1,2.8,4.8C102.8,91.4,98,95.1,95.4,95.4z"/>
	<path fill="#A4A463" d="M95.3,95.4c-5.9-3.5-4.9-8.2-4.9-8.2s0.5-0.9,0.7-1.3c0.2-0.3,2.2,5.1,3.2,5.5
		C95.4,91.7,95.3,95.4,95.3,95.4z"/>
	<path fill="#928E43" d="M95.3,95.4c0,0-2.6-5.3-2.3-6.4c0.3-1.2,0.5-3,1.1-2.6c0.5,0.4,1.7,1.8,1.9,2.8c0.2,1,0.4,1.3,0.3,2.9
		C96.1,93.5,96.3,93.5,95.3,95.4z"/>
	<path fill="#E28282" d="M95.3,95.4c0,0-4.4-8.7-4.4-9.6s-0.2-6.8,0.4-7.3c0.6-0.5,2.8,5.3,3.1,6C94.6,85.2,95.2,85.6,95.3,95.4z"/>
	<path fill="#D0D288" d="M95.3,95.4c0,0-5.6-6.8-4.8-13.7c0.9-6.9,0.8-4,0.8-4s0.1,6.5,1,8.5C93.1,88.1,95.3,95.4,95.3,95.4z"/>
	<path fill="#93B15F" d="M94.2,105.8c0,0,2-4.1,5.4-3.7c3.4,0.3,4.9,0.8,7,2.3c2.1,1.5,3.1,2.5,3.1,2.5s-5.9-2.5-8-2.4
		S94.2,105.8,94.2,105.8z"/>
	<path fill="#93B15F" d="M90.9,115.3c0-2.5-2.7-3.9-5.3-3.9c-2.6,0-6.5,0.8-8.1,2.1s-3.8,2.5-3.8,2.5c0,0,4.4-2.4,7.6-2.8
		C83.4,112.8,90.9,115.8,90.9,115.3z"/>
	<path fill="#D7CDA3" d="M58.3,129.8l0,10.4c0,0,12.8,6.2,36.5,5.6s33.5-4.9,33.5-4.9l0-10.4c0,0-24.9-2.4-34.5-2.4
		S58.3,129.8,58.3,129.8z"/>
</g>

</svg>