<?xml version="1.0" encoding="utf-8"?>
<!-- Generator: Adobe Illustrator 18.0.0, SVG Export Plug-In . SVG Version: 6.00 Build 0)  -->
<!DOCTYPE svg PUBLIC "-//W3C//DTD SVG 1.1//EN" "http://www.w3.org/Graphics/SVG/1.1/DTD/svg11.dtd">
<svg version="1.1" id="Layer_1" xmlns="http://www.w3.org/2000/svg" xmlns:xlink="http://www.w3.org/1999/xlink" x="0px" y="0px"
	 viewBox="0 0 451.6 263" enable-background="new 0 0 451.6 263" xml:space="preserve">
<g>
	<g>
		<polyline fill="none" stroke="#F1F1F1" stroke-width="2" stroke-miterlimit="10" points="423.2,193.8 423.2,194.8 422.2,194.8 		
			"/>
		
			<line fill="none" stroke="#F1F1F1" stroke-width="2" stroke-miterlimit="10" stroke-dasharray="1.9946,1.9946" x1="420.2" y1="194.8" x2="14.2" y2="194.8"/>
		<polyline fill="none" stroke="#F1F1F1" stroke-width="2" stroke-miterlimit="10" points="13.3,194.8 12.3,194.8 12.3,193.8 		"/>
		
			<line fill="none" stroke="#F1F1F1" stroke-width="2" stroke-miterlimit="10" stroke-dasharray="2.0173,2.0173" x1="12.3" y1="191.7" x2="12.3" y2="15.2"/>
		<polyline fill="none" stroke="#F1F1F1" stroke-width="2" stroke-miterlimit="10" points="12.3,14.2 12.3,13.2 13.3,13.2 		"/>
		
			<line fill="none" stroke="#F1F1F1" stroke-width="2" stroke-miterlimit="10" stroke-dasharray="1.9946,1.9946" x1="15.2" y1="13.2" x2="421.2" y2="13.2"/>
		<polyline fill="none" stroke="#F1F1F1" stroke-width="2" stroke-miterlimit="10" points="422.2,13.2 423.2,13.2 423.2,14.2 		"/>
		<polyline fill="none" stroke="#F1F1F1" stroke-width="2" stroke-miterlimit="10" stroke-dasharray="1.9568,1.9568" points="
			423.2,16.2 423.2,33.6 439.2,52.3 		"/>
		<polyline fill="none" stroke="#F1F1F1" stroke-width="2" stroke-miterlimit="10" points="439.8,53.1 440.5,53.8 439.8,54.6 		"/>
		<polyline fill="none" stroke="#F1F1F1" stroke-width="2" stroke-miterlimit="10" stroke-dasharray="1.9902,1.9902" points="
			438.5,56.1 423.2,74.1 423.2,192.8 		"/>
	</g>
</g>
<rect x="30.7" y="35" fill="none" width="374" height="145.9"/>
<text transform="matrix(1 0 0 1 30.6855 45.0415)"><tspan x="0" y="0" fill="#494949" font-family="'Helvetica-BoldOblique'" font-size="14">CONTEXUAL INQUIRY</tspan><tspan x="0" y="20" fill="#494949" font-family="'Helvetica'" font-size="14">We observed patients’ day-to-day experiences and interac</tspan><tspan x="361.1" y="20" fill="#494949" font-family="'Helvetica'" font-size="14">-</tspan><tspan x="0" y="40" fill="#494949" font-family="'Helvetica'" font-size="14">tions with data.</tspan><tspan x="0" y="67.8" fill="#494949" font-family="'Helvetica-BoldOblique'" font-size="14">INTERVIEW</tspan><tspan x="0" y="87.8" fill="#494949" font-family="'Helvetica'" font-size="14">We conducted in-person and phone interviews with patients, </tspan><tspan x="0" y="107.8" fill="#494949" font-family="'Helvetica'" font-size="14">caregivers, cancer experts and oncologists to gain a better </tspan><tspan x="0" y="127.8" fill="#494949" font-family="'Helvetica'" font-size="14">understanding of desires, challenges and needs.</tspan></text>
<rect x="285.8" y="196.1" fill="#65B6BF" width="137.2" height="58.7"/>
<rect x="148.9" y="196.1" fill="#ADD9A0" width="137.2" height="58.7"/>
<rect x="11.9" y="196.1" fill="#D1DF9D" width="137.2" height="58.7"/>
<rect x="293.7" y="212.6" fill="none" width="25.6" height="39.2"/>
<text transform="matrix(1 0 0 1 298.3865 239.2935)" fill="#FFFFFF" font-family="'Montserrat-Regular'" font-size="36">5</text>
<rect x="326.4" y="214.9" fill="none" width="107.5" height="31.5"/>
<text transform="matrix(1 0 0 1 326.4494 223.8352)"><tspan x="0" y="0" fill="#FFFFFF" font-family="'Montserrat-Regular'" font-size="12">EXPERTS + </tspan><tspan x="0" y="14.4" fill="#FFFFFF" font-family="'Montserrat-Regular'" font-size="12">CAREGIVERS</tspan></text>
<rect x="168.7" y="212.6" fill="none" width="25.6" height="39.2"/>
<text transform="matrix(1 0 0 1 173.3865 239.2935)" fill="#FFFFFF" font-family="'Montserrat-Regular'" font-size="36">5</text>
<rect x="201.4" y="214.9" fill="none" width="70" height="31.5"/>
<text transform="matrix(1 0 0 1 201.4494 223.8352)"><tspan x="0" y="0" fill="#FFFFFF" font-family="'Montserrat-Regular'" font-size="12">CANCER</tspan><tspan x="0" y="14.4" fill="#FFFFFF" font-family="'Montserrat-Regular'" font-size="12">PATIENTS</tspan></text>
<rect x="14.1" y="212.4" fill="none" width="47.2" height="39.2"/>
<text transform="matrix(1 0 0 1 22.8766 239.0986)" fill="#FFFFFF" font-family="'Montserrat-Regular'" font-size="36">10</text>
<rect x="64.9" y="214.7" fill="none" width="86.2" height="31.5"/>
<text transform="matrix(1 0 0 1 64.9185 223.6404)"><tspan x="0" y="0" fill="#FFFFFF" font-family="'Montserrat-Regular'" font-size="12">CANCER</tspan><tspan x="0" y="14.4" fill="#FFFFFF" font-family="'Montserrat-Regular'" font-size="12">SURVIVORS</tspan></text>
</svg>
