<?xml version="1.0" encoding="utf-8"?>
<!-- Generator: Adobe Illustrator 18.0.0, SVG Export Plug-In . SVG Version: 6.00 Build 0)  -->
<!DOCTYPE svg PUBLIC "-//W3C//DTD SVG 1.1//EN" "http://www.w3.org/Graphics/SVG/1.1/DTD/svg11.dtd">
<svg version="1.1" id="Layer_1" xmlns="http://www.w3.org/2000/svg" xmlns:xlink="http://www.w3.org/1999/xlink" x="0px" y="0px"
	 viewBox="0 0 451.6 263" enable-background="new 0 0 451.6 263" xml:space="preserve">
<g>
	<g>
		<polyline fill="none" stroke="#F1F1F1" stroke-width="2" stroke-miterlimit="10" points="439.2,193.8 439.2,194.8 438.2,194.8 		
			"/>
		
			<line fill="none" stroke="#F1F1F1" stroke-width="2" stroke-miterlimit="10" stroke-dasharray="1.9946,1.9946" x1="436.2" y1="194.8" x2="30.2" y2="194.8"/>
		<polyline fill="none" stroke="#F1F1F1" stroke-width="2" stroke-miterlimit="10" points="29.3,194.8 28.3,194.8 28.3,193.8 		"/>
		<polyline fill="none" stroke="#F1F1F1" stroke-width="2" stroke-miterlimit="10" stroke-dasharray="2.0188,2.0188" points="
			28.3,191.7 28.3,72.8 13.2,52.3 		"/>
		<polyline fill="none" stroke="#F1F1F1" stroke-width="2" stroke-miterlimit="10" points="12.6,51.5 12.1,50.7 12.7,49.9 		"/>
		<polyline fill="none" stroke="#F1F1F1" stroke-width="2" stroke-miterlimit="10" stroke-dasharray="1.9603,1.9603" points="
			13.9,48.4 28.3,30.5 28.3,15.2 		"/>
		<polyline fill="none" stroke="#F1F1F1" stroke-width="2" stroke-miterlimit="10" points="28.3,14.2 28.3,13.2 29.3,13.2 		"/>
		
			<line fill="none" stroke="#F1F1F1" stroke-width="2" stroke-miterlimit="10" stroke-dasharray="1.9946,1.9946" x1="31.2" y1="13.2" x2="437.2" y2="13.2"/>
		<polyline fill="none" stroke="#F1F1F1" stroke-width="2" stroke-miterlimit="10" points="438.2,13.2 439.2,13.2 439.2,14.2 		"/>
		<polyline fill="none" stroke="#F1F1F1" stroke-width="2" stroke-miterlimit="10" stroke-dasharray="2.0173,2.0173" points="
			439.2,16.2 439.2,33.6 439.2,74.1 439.2,192.8 		"/>
	</g>
</g>
<rect x="46.7" y="35" fill="none" width="374" height="145.9"/>
<text transform="matrix(1 0 0 1 46.6855 45.0415)"><tspan x="0" y="0" fill="#494949" font-family="'Helvetica-BoldOblique'" font-size="14">CONTEXUAL INQUIRY</tspan><tspan x="0" y="20" fill="#494949" font-family="'Helvetica'" font-size="14">We observed patients’ day-to-day experiences and interac</tspan><tspan x="361.1" y="20" fill="#494949" font-family="'Helvetica'" font-size="14">-</tspan><tspan x="0" y="40" fill="#494949" font-family="'Helvetica'" font-size="14">tions with data.</tspan><tspan x="0" y="67.8" fill="#494949" font-family="'Helvetica-BoldOblique'" font-size="14">INTERVIEW</tspan><tspan x="0" y="87.8" fill="#494949" font-family="'Helvetica'" font-size="14">We conducted in-person and phone interviews with patients, </tspan><tspan x="0" y="107.8" fill="#494949" font-family="'Helvetica'" font-size="14">caregivers, cancer experts and oncologists to gain a better </tspan><tspan x="0" y="127.8" fill="#494949" font-family="'Helvetica'" font-size="14">understanding of desires, challenges and needs.</tspan></text>
<rect x="301.8" y="196.1" fill="#65B6BF" width="137.2" height="58.7"/>
<rect x="164.9" y="196.1" fill="#ADD9A0" width="137.2" height="58.7"/>
<rect x="27.9" y="196.1" fill="#D1DF9D" width="137.2" height="58.7"/>
<rect x="310.7" y="212.6" fill="none" width="25.6" height="39.2"/>
<text transform="matrix(1 0 0 1 315.3865 239.2935)" fill="#FFFFFF" font-family="'Montserrat-Regular'" font-size="36">5</text>
<rect x="343.1" y="214.9" fill="none" width="107.5" height="31.5"/>
<text transform="matrix(1 0 0 1 343.0881 223.8352)"><tspan x="0" y="0" fill="#FFFFFF" font-family="'Montserrat-Regular'" font-size="12">EXPERTS + </tspan><tspan x="0" y="14.4" fill="#FFFFFF" font-family="'Montserrat-Regular'" font-size="12">CAREGIVERS</tspan></text>
<rect x="183.7" y="212.6" fill="none" width="25.6" height="39.2"/>
<text transform="matrix(1 0 0 1 188.3865 239.2935)" fill="#FFFFFF" font-family="'Montserrat-Regular'" font-size="36">5</text>
<rect x="218.1" y="214.9" fill="none" width="70" height="31.5"/>
<text transform="matrix(1 0 0 1 218.0882 223.8352)"><tspan x="0" y="0" fill="#FFFFFF" font-family="'Montserrat-Regular'" font-size="12">CANCER</tspan><tspan x="0" y="14.4" fill="#FFFFFF" font-family="'Montserrat-Regular'" font-size="12">PATIENTS</tspan></text>
<rect x="30.1" y="212.4" fill="none" width="47.2" height="39.2"/>
<text transform="matrix(1 0 0 1 38.8766 239.0986)" fill="#FFFFFF" font-family="'Montserrat-Regular'" font-size="36">10</text>
<rect x="82.6" y="214.7" fill="none" width="86.2" height="31.5"/>
<text transform="matrix(1 0 0 1 82.5572 223.6404)"><tspan x="0" y="0" fill="#FFFFFF" font-family="'Montserrat-Regular'" font-size="12">CANCER</tspan><tspan x="0" y="14.4" fill="#FFFFFF" font-family="'Montserrat-Regular'" font-size="12">SURVIVORS</tspan></text>
</svg>
